<?xml version="1.0" encoding="utf-8"?>
<!-- Generator: Adobe Illustrator 25.1.0, SVG Export Plug-In . SVG Version: 6.00 Build 0)  -->
<svg version="1.1" id="Layer_1" xmlns="http://www.w3.org/2000/svg" xmlns:xlink="http://www.w3.org/1999/xlink" x="0px" y="0px"
	 viewBox="0 0 1056 1024" style="enable-background:new 0 0 1056 1024;" xml:space="preserve">
<style type="text/css">
	.st0{fill:#00FF1E;}
</style>
<g id="icomoon-ignore">
</g>
<path class="st0" d="M958.8,799.4V609.1h-93.1v191h-97.2v94.5H543v-95.2h225.5v-95.1H288.8v95.1l193,0.7v95.1H288.1v-94.4H191V608.5
	H97.8v190.3H0V510.7h95.8v-92.5H191v-97.8h97.8v-95.8h95.8v96.1l287.5,0.8v-96.9h95.8v97.2h97.8v95.2h94.5V512h96.4v287.4H958.8
	L958.8,799.4z M384.6,416.2h-95.8V512h95.8L384.6,416.2L384.6,416.2z M767.9,416.2h-95.8V512h95.8V416.2z M191,128.7h97.8v95.8H191
	L191,128.7L191,128.7z M865.7,128.7v95.8h-97.8v-95.8H865.7z"/>
</svg>
